<svg xmlns="http://www.w3.org/2000/svg" xmlns:xlink="http://www.w3.org/1999/xlink" version="1.1" x="0px" y="0px" width="100px" height="100px" viewBox="0 0 100 100" enable-background="new 0 0 100 100" xml:space="preserve">
<g id="Captions" display="none">
	<text transform="matrix(1 0 0 1 -210 -19.5)" fill="#000000" font-family="'Helvetica'" font-size="2.4">http://thenounproject.com</text>
	<text transform="matrix(1 0 0 1 -268.834 -24.5)"><tspan x="0" y="0" display="inline" fill="#000000" font-family="'Helvetica-Bold'" font-size="6.1578">The Noun Project</tspan><tspan x="1.12" y="4.8" display="inline" fill="#000000" font-family="'Helvetica-Bold'" font-size="4">Icon Template</tspan></text>
	<text transform="matrix(1 0 0 1 -454.5 10.5)" fill="#000000" font-family="'Helvetica-Bold'" font-size="6.1578">Reminders</text>
	<rect x="-455" y="58" fill="none" width="35" height="32.5"/>
	<text transform="matrix(1 0 0 1 -455 60.1543)"><tspan x="0" y="0" display="inline" fill="#000000" font-family="'Helvetica-Bold'" font-size="3">Strokes</tspan><tspan x="0" y="5" display="inline" fill="#000000" font-family="'Helvetica'" font-size="2.4">Try to keep strokes at 4px</tspan><tspan x="0" y="10" display="inline" fill="#000000" font-family="'Helvetica'" font-size="2.4">Minimum stroke weight is 2px</tspan><tspan x="0" y="14.5" display="inline" fill="#000000" font-family="'Helvetica'" font-size="2.4">For thicker strokes use even </tspan><tspan x="0" y="17.5" display="inline" fill="#000000" font-family="'Helvetica'" font-size="2.4">numbers: 6px, 8px etc.</tspan><tspan x="0" y="22" display="inline" fill="#000000" font-family="'Helvetica-Bold'" font-size="2.4">Remember to expand strokes </tspan><tspan x="0" y="25" display="inline" fill="#000000" font-family="'Helvetica-Bold'" font-size="2.4">before saving as an SVG </tspan></text>
	<rect x="-412.5" y="58" fill="none" width="35" height="32.5"/>
	<text transform="matrix(1 0 0 1 -412.5 60.1543)"><tspan x="0" y="0" display="inline" fill="#000000" font-family="'Helvetica-Bold'" font-size="3">Size</tspan><tspan x="0" y="5" display="inline" fill="#000000" font-family="'Helvetica'" font-size="2.4">Cannot be wider or taller than </tspan><tspan x="0" y="8.5" display="inline" fill="#000000" font-family="'Helvetica'" font-size="2.4">100px (artboard size)</tspan><tspan x="0" y="13.5" display="inline" fill="#000000" font-family="'Helvetica'" font-size="2.4">Scale your icon to fill as much of </tspan><tspan x="0" y="16.5" display="inline" fill="#000000" font-family="'Helvetica'" font-size="2.4">the artboard as possible</tspan></text>
	<rect x="-370" y="58" fill="none" width="35" height="32.5"/>
	<text transform="matrix(1 0 0 1 -370 60.1543)"><tspan x="0" y="0" display="inline" fill="#000000" font-family="'Helvetica-Bold'" font-size="3">Ungroup</tspan><tspan x="0" y="5" display="inline" fill="#000000" font-family="'Helvetica'" font-size="2.4">If your design has more than one </tspan><tspan x="0" y="8" display="inline" fill="#000000" font-family="'Helvetica'" font-size="2.4">shape, make sure to ungroup</tspan></text>
	<rect x="-326" y="58" fill="none" width="35" height="32.5"/>
	<text transform="matrix(1 0 0 1 -326 60.1543)"><tspan x="0" y="0" display="inline" fill="#000000" font-family="'Helvetica-Bold'" font-size="3">Save as</tspan><tspan x="0" y="5" display="inline" fill="#000000" font-family="'Helvetica'" font-size="2.4">Save as .SVG and make sure </tspan><tspan x="0" y="8" display="inline" fill="#000000" font-family="'Helvetica'" font-size="2.4">&#8220;Use Artboards&#8221; is checked</tspan></text>
	<text transform="matrix(1.0074 0 0 1 -401.542 30.5933)" fill="#000000" font-family="'Helvetica'" font-size="2.5731">100px</text>
	<text transform="matrix(1.0074 0 0 1 -317 39)" fill="#000000" font-family="'Helvetica-Bold'" font-size="5.1462">.SVG</text>
</g>
<g id="Your_Icon">
	<g>
		<path fill="#000000" d="M46.261,78.182c-1.509,0-2.891-0.588-3.998-1.701c-3.508-3.528-3.563-11.53-3.559-12.432V50.244    c0-6.368-3.397-9.596-10.098-9.596c-1.62,0-2.789,0.22-2.8,0.222c-0.17,0.034-0.35,0.037-0.525,0.014l-1.124-0.162    c-0.776-0.112-1.353-0.778-1.353-1.562v-7.549c0-0.28,0.075-0.556,0.217-0.798C31.188,16.892,40.103,9.832,49.517,9.832    c15.937,0,27.024,20.17,27.489,21.029c0.125,0.231,0.189,0.488,0.189,0.75v20.399c0,0.819-0.628,1.503-1.445,1.57    c-5.674,0.475-12.422,9.149-14.543,12.451C55.058,74.239,50.189,78.182,46.261,78.182L46.261,78.182z M28.606,37.494    c8.422,0,13.252,4.646,13.252,12.75V64.03c-0.01,2.122,0.446,8.022,2.643,10.228c0.523,0.525,1.082,0.771,1.76,0.771    c1.591,0,5.313-1.401,12.357-10.793c0.264-0.419,7.564-11.678,15.424-13.562V32.025c-1.488-2.575-11.508-19.04-24.525-19.04    c-8.138,0-16.062,6.41-23.558,19.055v5.618C26.565,37.581,27.497,37.494,28.606,37.494L28.606,37.494z"/>
	</g>
	<g>
		<path fill="#000000" d="M55.666,13.427c-3.479,0-6.308-2.829-6.308-6.308s2.829-6.308,6.308-6.308s6.308,2.829,6.308,6.308    S59.145,13.427,55.666,13.427L55.666,13.427z M55.666,3.964c-1.738,0-3.154,1.416-3.154,3.154s1.416,3.154,3.154,3.154    s3.154-1.415,3.154-3.154S57.404,3.964,55.666,3.964L55.666,3.964z"/>
	</g>
	<g>
		<path fill="#000000" d="M46.204,99.189c-3.479,0-6.308-2.829-6.308-6.308c0-3.479,2.828-6.309,6.308-6.309    c3.479,0,6.308,2.829,6.308,6.309C52.512,96.36,49.683,99.189,46.204,99.189L46.204,99.189z M46.204,89.728    c-1.739,0-3.154,1.415-3.154,3.154c0,1.738,1.415,3.153,3.154,3.153c1.738,0,3.154-1.415,3.154-3.153    C49.358,91.143,47.942,89.728,46.204,89.728L46.204,89.728z"/>
	</g>
	<g>
		<polygon fill="#000000" points="47.781,87.037 44.627,87.037 44.627,76.605 47.781,76.605 47.781,87.037   "/>
	</g>
	<g>
		<g>
			<path fill="#000000" d="M49.82,28.722h-0.986c-10.063,0-16.197-2.221-19.572-4.084c-0.762-0.42-1.039-1.38-0.617-2.143     c0.419-0.761,1.378-1.041,2.143-0.617c2.496,1.378,8.16,3.69,18.047,3.69h0.986c10.963,0,16.768-2.869,18.754-4.103     c0.739-0.459,1.711-0.231,2.172,0.508c0.459,0.739,0.232,1.712-0.508,2.171C67.485,25.854,61.172,28.722,49.82,28.722     L49.82,28.722z"/>
		</g>
		<g>
			<path fill="#000000" d="M49.82,33.723h-0.986c-8.342,0-15.67-1.649-21.777-4.902c-0.769-0.41-1.061-1.365-0.651-2.133     c0.408-0.769,1.366-1.057,2.133-0.652c5.647,3.008,12.476,4.533,20.296,4.533h0.986c7.82,0,14.646-1.525,20.293-4.531     c0.769-0.407,1.725-0.117,2.133,0.651c0.409,0.769,0.117,1.723-0.651,2.133C65.488,32.073,58.162,33.723,49.82,33.723     L49.82,33.723z"/>
		</g>
	</g>
</g>
</svg>